M48
;DRILL file {KiCad 4.0.2-4+6225~38~ubuntu15.10.1-stable} date ma  7. maaliskuuta 2016 18.19.42
;FORMAT={-:-/ absolute / inch / decimal}
FMAT,2
INCH,TZ
T1C0.032
T2C0.035
T3C0.125
%
G90
G05
M72
T1
X6.7865Y-2.134
X6.8865Y-2.134
X6.9865Y-2.134
X7.0865Y-2.134
X7.1465Y-4.034
X7.1865Y-2.134
X7.2465Y-4.034
X7.2865Y-2.134
X7.3465Y-4.034
X7.3865Y-2.134
X7.4465Y-4.034
X7.4865Y-2.134
X7.5465Y-4.034
X7.6465Y-2.134
X7.6465Y-4.034
X7.7465Y-2.134
X7.8465Y-2.134
X7.8465Y-4.034
X7.9465Y-2.134
X7.9465Y-4.034
X8.0465Y-2.134
X8.0465Y-4.034
X8.1465Y-2.134
X8.1465Y-4.034
X8.2465Y-2.134
X8.2465Y-4.034
X8.3465Y-2.134
X8.3465Y-4.034
T2
X6.8865Y-2.3
X6.8865Y-2.4
X6.8865Y-2.5
X7.4Y-2.5
X7.4Y-2.6
X7.4Y-2.7
X7.75Y-2.5
X7.75Y-2.6
X7.75Y-2.7
X7.85Y-2.5
X7.85Y-2.6
X7.85Y-2.7
X7.9Y-3.4
X7.9Y-3.5
X7.9Y-3.6
X7.9Y-3.7
X8.05Y-2.5
X8.05Y-2.6
X8.05Y-2.7
T3
X6.3965Y-4.034
X6.4465Y-2.134
X8.4465Y-2.734
X8.4465Y-3.834
T0
M30
