M48
;DRILL file {KiCad 4.0.2-4+6225~38~ubuntu15.10.1-stable} date ma  7. maaliskuuta 2016 18.20.40
;FORMAT={-:-/ absolute / metric / decimal}
FMAT,2
METRIC,TZ
T1C0.813
T2C0.900
T3C3.175
%
G90
G05
M71
T1
X172.377Y-54.204
X174.917Y-54.204
X177.457Y-54.204
X179.997Y-54.204
X181.521Y-102.464
X182.537Y-54.204
X184.061Y-102.464
X185.077Y-54.204
X186.601Y-102.464
X187.617Y-54.204
X189.141Y-102.464
X190.157Y-54.204
X191.681Y-102.464
X194.221Y-54.204
X194.221Y-102.464
X196.761Y-54.204
X199.301Y-54.204
X199.301Y-102.464
X201.841Y-54.204
X201.841Y-102.464
X204.381Y-54.204
X204.381Y-102.464
X206.921Y-54.204
X206.921Y-102.464
X209.461Y-54.204
X209.461Y-102.464
X212.001Y-54.204
X212.001Y-102.464
T2
X174.917Y-58.42
X174.917Y-60.96
X174.917Y-63.5
X187.96Y-63.5
X187.96Y-66.04
X187.96Y-68.58
X196.85Y-63.5
X196.85Y-66.04
X196.85Y-68.58
X199.39Y-63.5
X199.39Y-66.04
X199.39Y-68.58
X200.66Y-86.36
X200.66Y-88.9
X200.66Y-91.44
X200.66Y-93.98
X204.47Y-63.5
X204.47Y-66.04
X204.47Y-68.58
T3
X162.471Y-102.464
X163.741Y-54.204
X214.541Y-69.444
X214.541Y-97.384
T0
M30
