<?xml version="1.0" encoding="UTF-8" standalone="no"?>
<!-- Created with Inkscape (http://www.inkscape.org/) -->

<svg
   xmlns:dc="http://purl.org/dc/elements/1.1/"
   xmlns:cc="http://creativecommons.org/ns#"
   xmlns:rdf="http://www.w3.org/1999/02/22-rdf-syntax-ns#"
   xmlns:svg="http://www.w3.org/2000/svg"
   xmlns="http://www.w3.org/2000/svg"
   xmlns:sodipodi="http://sodipodi.sourceforge.net/DTD/sodipodi-0.dtd"
   xmlns:inkscape="http://www.inkscape.org/namespaces/inkscape"
   width="297mm"
   height="210mm"
   viewBox="0 0 1052.3622 744.09448"
   id="svg2"
   version="1.1"
   inkscape:version="0.48.4 r9939"
   sodipodi:docname="blimb-arm&amp;clamp-v10.pdf">
  <defs
     id="defs4" />
  <sodipodi:namedview
     id="base"
     pagecolor="#ffffff"
     bordercolor="#666666"
     borderopacity="1.0"
     inkscape:pageopacity="0.0"
     inkscape:pageshadow="2"
     inkscape:zoom="2.0080918"
     inkscape:cx="235.11896"
     inkscape:cy="571.9905"
     inkscape:document-units="mm"
     inkscape:current-layer="layer1"
     showgrid="true"
     objecttolerance="7"
     gridtolerance="6"
     guidetolerance="6"
     inkscape:window-width="1600"
     inkscape:window-height="851"
     inkscape:window-x="0"
     inkscape:window-y="23"
     inkscape:window-maximized="1">
    <inkscape:grid
       type="xygrid"
       id="grid4239"
       units="mm"
       spacingx="35.433071"
       spacingy="35.433071"
       empspacing="5"
       visible="true"
       enabled="true"
       snapvisiblegridlinesonly="true" />
  </sodipodi:namedview>
  <metadata
     id="metadata7">
    <rdf:RDF>
      <cc:Work
         rdf:about="">
        <dc:format>image/svg+xml</dc:format>
        <dc:type
           rdf:resource="http://purl.org/dc/dcmitype/StillImage" />
        <dc:title></dc:title>
      </cc:Work>
    </rdf:RDF>
  </metadata>
  <g
     inkscape:label="Layer 1"
     inkscape:groupmode="layer"
     id="layer1"
     transform="translate(0,-308.26772)">
    <g
       id="g3392"
       transform="matrix(0,-3.5433071,-3.5433071,0,10.362738,601.68237)"
       style="fill:none;stroke:#000000;stroke-width:0.02;stroke-miterlimit:4;stroke-dasharray:none;stroke-opacity:1">
      <path
         style="fill:none;fill-rule:evenodd;stroke:#000000;stroke-width:0.02;stroke-miterlimit:4;stroke-dasharray:none;stroke-opacity:1"
         d="m -10.065513,-20.176004 10.211832,-9.924076 16.743474,0 3.671107,6.727756 9.393705,0 L 38.700466,-30 60,-30 l 10.86895,5.225952 0,18.917906 L 60,0 0,0 l -10.065513,-10.009865 0,-10.166139"
         id="Sketch"
         inkscape:connector-curvature="0" />
      <path
         style="fill:none;fill-rule:evenodd;stroke:#000000;stroke-width:0.02;stroke-miterlimit:4;stroke-dasharray:none;stroke-opacity:1"
         d="m 42.90187,-9 24.5,0 0,-12 -24.5,0 0,12"
         id="path3395"
         inkscape:connector-curvature="0" />
      <path
         style="fill:none;fill-rule:evenodd;stroke:#000000;stroke-width:0.02;stroke-miterlimit:4;stroke-dasharray:none;stroke-opacity:1"
         d="m 45,-3.25 6,0 0,-2.5 -6,0 0,2.5"
         id="path3397"
         inkscape:connector-curvature="0" />
      <path
         style="fill:none;fill-rule:evenodd;stroke:#000000;stroke-width:0.02;stroke-miterlimit:4;stroke-dasharray:none;stroke-opacity:1"
         d="m 45,-26.75 6,0 0,2.5 -6,0 0,-2.5"
         id="path3399"
         inkscape:connector-curvature="0" />
      <path
         style="fill:none;fill-rule:evenodd;stroke:#000000;stroke-width:0.02;stroke-miterlimit:4;stroke-dasharray:none;stroke-opacity:1"
         d="m 0,-40 70.03347,0 11.548276,-8.035774 0,-21.92499 -8,0 0,16 -23,0 0,-16 -5.879113,0 -4.750843,7.536467 -19.759173,0 L 15.765702,-70 0,-70 l -9.996184,9.994919 0,9.999706 L 0,-40"
         id="path3401"
         inkscape:connector-curvature="0" />
      <path
         style="fill:none;fill-rule:evenodd;stroke:#000000;stroke-width:0.02;stroke-miterlimit:4;stroke-dasharray:none;stroke-opacity:1"
         d="m 73.581746,-56.960764 2,0 0,-3 -2,0 0,3"
         id="path3403"
         inkscape:connector-curvature="0" />
      <path
         style="fill:none;fill-rule:evenodd;stroke:#000000;stroke-width:0.02;stroke-miterlimit:4;stroke-dasharray:none;stroke-opacity:1"
         d="m 20.079563,-45 4,0 0,-10 -4,0 0,10"
         id="path3405"
         inkscape:connector-curvature="0" />
      <path
         style="fill:none;fill-rule:evenodd;stroke:#000000;stroke-width:0.02;stroke-miterlimit:4;stroke-dasharray:none;stroke-opacity:1"
         d="m 34.680559,-45 4,0 0,-10 -4,0 0,10"
         id="path3407"
         inkscape:connector-curvature="0" />
      <path
         style="fill:none;fill-rule:evenodd;stroke:#000000;stroke-width:0.02;stroke-miterlimit:4;stroke-dasharray:none;stroke-opacity:1"
         d="m 54.264877,-45 15,0 0,-4 -15,0 0,4"
         id="path3409"
         inkscape:connector-curvature="0" />
      <path
         style="fill:none;fill-rule:evenodd;stroke:#000000;stroke-width:0.02;stroke-miterlimit:4;stroke-dasharray:none;stroke-opacity:1"
         d="m 19.995731,-14.030662 10,0 0,-4 -10,0 0,4"
         id="path3411"
         inkscape:connector-curvature="0" />
      <path
         style="fill:none;fill-rule:evenodd;stroke:#000000;stroke-width:0.02;stroke-miterlimit:4;stroke-dasharray:none;stroke-opacity:1"
         d="m 20.026758,-3.9646118 10,0 0,-4 -10,0 0,4"
         id="path3413"
         inkscape:connector-curvature="0" />
      <path
         style="fill:none;fill-rule:evenodd;stroke:#000000;stroke-width:0.02;stroke-miterlimit:4;stroke-dasharray:none;stroke-opacity:1"
         d="m 76.559312,-61.516482 2,0 0,-6 -2,0 0,6"
         id="path3415"
         inkscape:connector-curvature="0" />
      <path
         style="fill:none;fill-rule:evenodd;stroke:#000000;stroke-width:0.02;stroke-miterlimit:4;stroke-dasharray:none;stroke-opacity:1"
         d="m 46.318874,-61.516482 2,0 0,-6 -2,0 0,6"
         id="path3417"
         inkscape:connector-curvature="0" />
    </g>
    <g
       id="g4507"
       transform="translate(358.60853,-514.64734)"
       style="fill:none;stroke:#000000;stroke-width:0.07086614;stroke-miterlimit:4;stroke-opacity:1;stroke-dasharray:none">
      <g
         transform="matrix(3.5433071,0,0,-3.5433071,30.474376,959.61614)"
         id="g4488"
         style="fill:none;stroke:#000000;stroke-width:0.02;stroke-miterlimit:4;stroke-opacity:1;stroke-dasharray:none">
        <path
           inkscape:connector-curvature="0"
           id="Sketch-7"
           d="m 18,0 0,-26 -24.85031,0 0,30.006072 -1.575108,5.674265 0.08859,16.479949 L 2.085446,37.016827 8.237486,34.845516 9,33 0,24 0,14 9,5 18,0"
           style="fill:none;stroke:#000000;stroke-width:0.02;stroke-miterlimit:4;stroke-opacity:1;stroke-dasharray:none" />
      </g>
      <circle
         r="5.2994699"
         cy="969.09448"
         cx="19.488188"
         id="path4499"
         style="fill:none;stroke:#000000;stroke-width:0.07086614;stroke-miterlimit:4;stroke-opacity:1;stroke-dasharray:none"
         d="m 24.787658,969.09448 c 0,2.92682 -2.372654,5.29947 -5.29947,5.29947 -2.926817,0 -5.29947,-2.37265 -5.29947,-5.29947 0,-2.92681 2.372653,-5.29947 5.29947,-5.29947 2.926816,0 5.29947,2.37266 5.29947,5.29947 z"
         sodipodi:cx="19.488188"
         sodipodi:cy="969.09448"
         sodipodi:rx="5.2994699"
         sodipodi:ry="5.2994699" />
      <circle
         style="fill:none;stroke:#000000;stroke-width:0.07086614;stroke-miterlimit:4;stroke-opacity:1;stroke-dasharray:none"
         id="circle4501"
         cx="19.48819"
         cy="1032.874"
         r="5.2994699"
         d="m 24.78766,1032.874 c 0,2.9268 -2.372654,5.2995 -5.29947,5.2995 -2.926817,0 -5.29947,-2.3727 -5.29947,-5.2995 0,-2.9268 2.372653,-5.2994 5.29947,-5.2994 2.926816,0 5.29947,2.3726 5.29947,5.2994 z"
         sodipodi:cx="19.48819"
         sodipodi:cy="1032.874"
         sodipodi:rx="5.2994699"
         sodipodi:ry="5.2994699" />
    </g>
    <g
       id="g4513"
       style="fill:none;stroke:#000000;stroke-width:0.07086614;stroke-miterlimit:4;stroke-opacity:1;stroke-dasharray:none"
       transform="translate(262.63967,-510.12704)">
      <g
         transform="matrix(3.5433071,0,0,-3.5433071,30.474376,959.61614)"
         id="g4312"
         style="fill:none;stroke:#000000;stroke-width:0.02;stroke-miterlimit:4;stroke-opacity:1;stroke-dasharray:none">
        <path
           inkscape:connector-curvature="0"
           id="Sketch-8"
           d="M 18,0 9,5 0,14 0,24 9,33 8.237486,34.845516 2.085446,37.016827 -8.336828,26.160286 -8.425418,9.680337 -6.85031,4.006072 -6.85031,-26 18,-26 18,0"
           style="fill:none;stroke:#000000;stroke-width:0.02;stroke-miterlimit:4;stroke-opacity:1;stroke-dasharray:none" />
        <circle
           cx="9"
           cy="-8.5"
           r="5.5"
           style="fill:none;stroke:#000000;stroke-width:0.02;stroke-miterlimit:4;stroke-opacity:1;stroke-dasharray:none"
           id="circle4315"
           d="M 14.5,-8.5 C 14.5,-5.4624339 12.037566,-3 9,-3 5.9624339,-3 3.5,-5.4624339 3.5,-8.5 3.5,-11.537566 5.9624339,-14 9,-14 c 3.037566,0 5.5,2.462434 5.5,5.5 z"
           sodipodi:cx="9"
           sodipodi:cy="-8.5"
           sodipodi:rx="5.5"
           sodipodi:ry="5.5" />
        <circle
           cx="9"
           cy="-14.2"
           r="2.5"
           style="fill:none;stroke:#000000;stroke-width:0.02;stroke-miterlimit:4;stroke-opacity:1;stroke-dasharray:none"
           id="circle4317"
           d="m 11.5,-14.2 c 0,1.380712 -1.119288,2.5 -2.5,2.5 -1.3807119,0 -2.5,-1.119288 -2.5,-2.5 0,-1.380712 1.1192881,-2.5 2.5,-2.5 1.380712,0 2.5,1.119288 2.5,2.5 z"
           sodipodi:cx="9"
           sodipodi:cy="-14.2"
           sodipodi:rx="2.5"
           sodipodi:ry="2.5" />
      </g>
      <circle
         style="fill:none;stroke:#000000;stroke-width:0.07086614;stroke-miterlimit:4;stroke-opacity:1;stroke-dasharray:none"
         id="circle4503"
         cx="19.48819"
         cy="969.09448"
         r="5.2994699"
         d="m 24.78766,969.09448 c 0,2.92682 -2.372654,5.29947 -5.29947,5.29947 -2.926817,0 -5.29947,-2.37265 -5.29947,-5.29947 0,-2.92681 2.372653,-5.29947 5.29947,-5.29947 2.926816,0 5.29947,2.37266 5.29947,5.29947 z"
         sodipodi:cx="19.48819"
         sodipodi:cy="969.09448"
         sodipodi:rx="5.2994699"
         sodipodi:ry="5.2994699" />
      <circle
         r="5.2994699"
         cy="1032.874"
         cx="19.48819"
         id="circle4505"
         style="fill:none;stroke:#000000;stroke-width:0.07086614;stroke-miterlimit:4;stroke-opacity:1;stroke-dasharray:none"
         d="m 24.78766,1032.874 c 0,2.9268 -2.372654,5.2995 -5.29947,5.2995 -2.926817,0 -5.29947,-2.3727 -5.29947,-5.2995 0,-2.9268 2.372653,-5.2994 5.29947,-5.2994 2.926816,0 5.29947,2.3726 5.29947,5.2994 z"
         sodipodi:cx="19.48819"
         sodipodi:cy="1032.874"
         sodipodi:rx="5.2994699"
         sodipodi:ry="5.2994699" />
    </g>
    <text
       xml:space="preserve"
       style="font-style:normal;font-weight:normal;font-size:30px;line-height:125%;font-family:sans-serif;letter-spacing:0px;word-spacing:0px;fill:none;fill-opacity:1;stroke:#000000;stroke-width:0.07086614;stroke-linecap:butt;stroke-linejoin:miter;stroke-opacity:1;stroke-miterlimit:4;stroke-dasharray:none"
       x="17.172594"
       y="564.96362"
       id="text4800"
       sodipodi:linespacing="125%"><tspan
         sodipodi:role="line"
         id="tspan4802"
         x="17.172594"
         y="564.96362" /></text>
    <text
       xml:space="preserve"
       style="font-style:normal;font-variant:normal;font-weight:normal;font-stretch:normal;font-size:28.00882530000000159px;line-height:125%;font-family:monospace;-inkscape-font-specification:monospace;letter-spacing:0px;word-spacing:0px;fill:#000000;fill-opacity:1;stroke:none;stroke-width:1px;stroke-linecap:butt;stroke-linejoin:miter;stroke-opacity:1"
       x="19.154688"
       y="567.40552"
       id="text4804"
       sodipodi:linespacing="125%"><tspan
         sodipodi:role="line"
         id="tspan4806"
         x="19.154688"
         y="567.40552">Blimb</tspan></text>
    <text
       xml:space="preserve"
       style="font-size:30px;font-style:normal;font-variant:normal;font-weight:normal;font-stretch:normal;line-height:125%;letter-spacing:0px;word-spacing:0px;fill:#000000;fill-opacity:1;stroke:none;font-family:monospace;-inkscape-font-specification:monospace"
       x="28.362003"
       y="593.75293"
       id="text4808"
       sodipodi:linespacing="125%"><tspan
         sodipodi:role="line"
         id="tspan4810"
         x="28.362003"
         y="593.75293">v1.0</tspan><tspan
         sodipodi:role="line"
         x="28.362003"
         y="631.25293"
         id="tspan3276" /></text>
    <g
       id="Sketch-3"
       transform="matrix(0,-3.543307,-3.543307,0,400.42954,609.88461)"
       style="fill:none;stroke:#000000;stroke-width:0.02;stroke-miterlimit:4;stroke-opacity:1;stroke-dasharray:none">
      <path
         inkscape:connector-curvature="0"
         id="Sketch_w0000"
         d="M 0.00407026,24.058402 5.326711,33.277486 7.309523,36.275379 2.085446,37.016827 -10.74298,29.904287 -10.79376,9.593351 -6.8817249,3.9857362 7.7579879,-16.776884 l 6.3556251,0.371586 4.570888,5.908755 L 18.31975,-5.244138 9.088144,5.002024 3.2891043e-5,14.09131 0,24.09131"
         style="fill:none;stroke:#000000;stroke-width:0.02;stroke-miterlimit:4;stroke-opacity:1;stroke-dasharray:none" />
      <path
         inkscape:connector-curvature="0"
         id="Sketch_w0001"
         d="m 1.5287486,12.562397 -7.5287486,0 0,13 6.87240214,0"
         style="fill:none;stroke:#000000;stroke-width:0.02;stroke-miterlimit:4;stroke-opacity:1;stroke-dasharray:none" />
      <title
         id="title3851">Sketch</title>
    </g>
  </g>
</svg>
