<?xml version="1.0" encoding="UTF-8" standalone="no"?>
<!-- Created with Inkscape (http://www.inkscape.org/) -->

<svg
   xmlns:dc="http://purl.org/dc/elements/1.1/"
   xmlns:cc="http://creativecommons.org/ns#"
   xmlns:rdf="http://www.w3.org/1999/02/22-rdf-syntax-ns#"
   xmlns:svg="http://www.w3.org/2000/svg"
   xmlns="http://www.w3.org/2000/svg"
   xmlns:sodipodi="http://sodipodi.sourceforge.net/DTD/sodipodi-0.dtd"
   xmlns:inkscape="http://www.inkscape.org/namespaces/inkscape"
   sodipodi:docname="kotelo0.1.svg"
   inkscape:version="0.48.4 r9939"
   version="1.1"
   id="svg2"
   height="2480.3149"
   width="3543.3069">
  <sodipodi:namedview
     id="base"
     pagecolor="#ffffff"
     bordercolor="#666666"
     borderopacity="1.0"
     inkscape:pageopacity="0.0"
     inkscape:pageshadow="2"
     inkscape:zoom="0.49497475"
     inkscape:cx="349.82548"
     inkscape:cy="2117.0592"
     inkscape:document-units="mm"
     inkscape:current-layer="svg2"
     showgrid="true"
     inkscape:window-width="1600"
     inkscape:window-height="849"
     inkscape:window-x="-2"
     inkscape:window-y="-10"
     inkscape:window-maximized="1"
     units="mm"
     guidetolerance="11"
     gridtolerance="9">
    <inkscape:grid
       spacingy="10mm"
       spacingx="10mm"
       units="mm"
       snapvisiblegridlinesonly="true"
       enabled="true"
       visible="true"
       empspacing="5"
       id="grid3094"
       type="xygrid" />
  </sodipodi:namedview>
  <defs
     id="defs4" />
  <metadata
     id="metadata7">
    <rdf:RDF>
      <cc:Work
         rdf:about="">
        <dc:format>image/svg+xml</dc:format>
        <dc:type
           rdf:resource="http://purl.org/dc/dcmitype/StillImage" />
        <dc:title></dc:title>
      </cc:Work>
    </rdf:RDF>
  </metadata>
  <g
     transform="translate(0,1427.9527)"
     inkscape:label="Layer 1"
     inkscape:groupmode="layer"
     id="layer1" />
  <g
     transform="translate(0,1427.9527)"
     inkscape:label="newlayer"
     inkscape:groupmode="layer"
     id="g3038" />
  <g
     id="g3553"
     inkscape:groupmode="layer"
     inkscape:label="newlayer" />
  <path
     id="path3555"
     inkscape:label="part"
     style="fill:none;stroke:#000000;stroke-width:0.07086614;stroke-miterlimit:4;stroke-dasharray:none"
     d="m 21.259871,467.71656 24.039798,0 0,-14.17323 24.943341,0 0,14.17323 23.738617,0 0,-14.17323 24.943343,0 0,14.17323 23.73862,0 0,-14.17323 24.94334,0 0,14.17323 23.73861,0 0,-14.17323 24.94334,0 0,14.17323 23.73862,0 0,-14.17323 24.94334,0 0,14.17323 23.73862,0 0,-14.17323 24.94334,0 0,14.17323 23.73862,0 0,-14.17323 24.94334,0 0,14.17323 23.73862,0 0,-14.17323 24.94334,0 0,14.17323 23.73861,0 0,-14.17323 24.94335,0 0,14.17323 23.73861,0 0,-14.17323 24.94334,0 0,14.17323 23.73862,0 0,-14.17323 24.94334,0 0,14.17323 24.0398,0"
     inkscape:connector-curvature="0" />
  <path
     id="path3557"
     inkscape:label="part"
     style="fill:none;stroke:#000000;stroke-width:0.07086614;stroke-miterlimit:4;stroke-dasharray:none"
     d="m 581.10239,467.71656 0,10.42491 -14.17323,0 0,23.6946 14.17323,0 0,24.89933 -14.17323,0 0,23.6946 14.17323,0 0,24.89932 -14.17323,0 0,23.6946 14.17323,0 0,10.42492"
     inkscape:connector-curvature="0" />
  <path
     id="path3561"
     inkscape:label="part"
     style="fill:none;stroke:#000000;stroke-width:0.07086614;stroke-miterlimit:4;stroke-dasharray:none"
     d="m 21.259871,609.44884 0,-10.42492 14.173228,0 0,-23.6946 -14.173228,0 0,-24.89932 14.173228,0 0,-23.6946 -14.173228,0 0,-24.89933 14.173228,0 0,-23.6946 -14.173228,0 0,-10.42491"
     inkscape:connector-curvature="0" />
  <path
     id="path3571"
     inkscape:label="part"
     style="fill:none;stroke:#000000;stroke-width:0.07086614;stroke-miterlimit:4;stroke-dasharray:none"
     d="m 21.259871,198.42522 24.64216,0 0,14.17323 23.738617,0 0,-14.17323 24.943341,0 0,14.17323 23.738621,0 0,-14.17323 24.94334,0 0,14.17323 23.73861,0 0,-14.17323 24.94335,0 0,14.17323 23.73861,0 0,-14.17323 24.94334,0 0,14.17323 23.73862,0 0,-14.17323 24.94334,0 0,14.17323 23.73862,0 0,-14.17323 24.94334,0 0,14.17323 23.73862,0 0,-14.17323 24.94334,0 0,14.17323 23.73862,0 0,-14.17323 24.94334,0 0,14.17323 23.73861,0 0,-14.17323 24.94335,0 0,14.17323 23.73861,0 0,-14.17323 24.94334,0 0,14.17323 23.73862,0 0,-14.17323 24.64216,0"
     inkscape:connector-curvature="0" />
  <path
     id="path3573"
     inkscape:label="part"
     style="fill:none;stroke:#000000;stroke-width:0.07086614;stroke-miterlimit:4;stroke-dasharray:none"
     d="m 581.10239,198.42522 0,27.07283 -14.17323,0 0,26.16929 14.17323,0 0,27.37402 -14.17323,0 0,26.16929 14.17323,0 0,27.37402 -14.17323,0 0,26.16929 14.17323,0 0,27.37401 -14.17323,0 0,26.1693 14.17323,0 0,27.07283"
     inkscape:connector-curvature="0" />
  <path
     id="path3575"
     inkscape:label="part"
     style="fill:none;stroke:#000000;stroke-width:0.07086614;stroke-miterlimit:4;stroke-dasharray:none"
     d="m 581.10239,439.3701 -24.64216,0 0,-14.17323 -23.73862,0 0,14.17323 -24.94334,0 0,-14.17323 -23.73861,0 0,14.17323 -24.94335,0 0,-14.17323 -23.73861,0 0,14.17323 -24.94334,0 0,-14.17323 -23.73862,0 0,14.17323 -24.94334,0 0,-14.17323 -23.73862,0 0,14.17323 -24.94334,0 0,-14.17323 -23.73862,0 0,14.17323 -24.94334,0 0,-14.17323 -23.73862,0 0,14.17323 -24.94334,0 0,-14.17323 -23.73861,0 0,14.17323 -24.94335,0 0,-14.17323 -23.73861,0 0,14.17323 -24.94334,0 0,-14.17323 -23.738621,0 0,14.17323 -24.943341,0 0,-14.17323 -23.738617,0 0,14.17323 -24.64216,0"
     inkscape:connector-curvature="0" />
  <path
     id="path3577"
     inkscape:label="part"
     style="fill:none;stroke:#000000;stroke-width:0.07086614;stroke-miterlimit:4;stroke-dasharray:none"
     d="m 21.259871,439.3701 0,-27.07283 14.173228,0 0,-26.1693 -14.173228,0 0,-27.37401 14.173228,0 0,-26.16929 -14.173228,0 0,-27.37402 14.173228,0 0,-26.16929 -14.173228,0 0,-27.37402 14.173228,0 0,-26.16929 -14.173228,0 0,-27.07283"
     inkscape:connector-curvature="0" />
  <path
     id="path3579"
     inkscape:label="part"
     style="fill:none;stroke:#000000;stroke-width:0.07086614;stroke-miterlimit:4;stroke-dasharray:none"
     d="m 636.61417,31.169854 9.82256,0 0,-14.173229 24.89932,0 0,14.173229 23.6946,0 0,-14.173229 24.89933,0 0,14.173229 23.6946,0 0,-14.173229 24.89932,0 0,14.173229 9.82256,0"
     inkscape:connector-curvature="0" />
  <path
     id="path3583"
     inkscape:label="part"
     style="fill:none;stroke:#000000;stroke-width:0.07086614;stroke-miterlimit:4;stroke-dasharray:none"
     d="m 778.34646,243.76828 -9.82256,0 0,14.17323 -24.89932,0 0,-14.17323 -23.6946,0 0,14.17323 -24.89933,0 0,-14.17323 -23.6946,0 0,14.17323 -24.89932,0 0,-14.17323 -9.82256,0"
     inkscape:connector-curvature="0" />
  <path
     id="path3585"
     inkscape:label="part"
     style="fill:none;stroke:#000000;stroke-width:0.07086614;stroke-miterlimit:4;stroke-dasharray:none"
     d="m 636.61417,243.76828 0,-12.29725 -14.17323,0 0,-27.37401 14.17323,0 0,-26.16929 -14.17323,0 0,-27.37402 14.17323,0 0,-26.16929 -14.17323,0 0,-27.374015 14.17323,0 0,-26.169291 -14.17323,0 0,-27.374016 14.17323,0 0,-12.297244"
     inkscape:connector-curvature="0" />
  <path
     id="path3597"
     inkscape:label="part"
     style="fill:none;stroke:#000000;stroke-width:0.07086614;stroke-miterlimit:4;stroke-dasharray:none"
     d="m 581.10239,28.346478 0,10.424915 -14.17323,0 0,23.694601 14.17323,0 0,24.899325 -14.17323,0 0,23.694601 14.17323,0 0,24.89932 -14.17323,0 0,23.69461 14.17323,0 0,10.42491"
     inkscape:connector-curvature="0" />
  <path
     id="path3599"
     inkscape:label="part"
     style="fill:none;stroke:#000000;stroke-width:0.07086614;stroke-miterlimit:4;stroke-dasharray:none"
     d="m 581.10239,170.07876 -24.0398,0 0,14.17323 -24.94334,0 0,-14.17323 -23.73862,0 0,14.17323 -24.94334,0 0,-14.17323 -23.73861,0 0,14.17323 -24.94335,0 0,-14.17323 -23.73861,0 0,14.17323 -24.94334,0 0,-14.17323 -23.73862,0 0,14.17323 -24.94334,0 0,-14.17323 -23.73862,0 0,14.17323 -24.94334,0 0,-14.17323 -23.73862,0 0,14.17323 -24.94334,0 0,-14.17323 -23.73862,0 0,14.17323 -24.94334,0 0,-14.17323 -23.73861,0 0,14.17323 -24.94334,0 0,-14.17323 -23.73862,0 0,14.17323 -24.943343,0 0,-14.17323 -23.738617,0 0,14.17323 -24.943341,0 0,-14.17323 -24.039798,0"
     inkscape:connector-curvature="0" />
  <path
     id="path3601"
     inkscape:label="part"
     style="fill:none;stroke:#000000;stroke-width:0.07086614;stroke-miterlimit:4;stroke-dasharray:none"
     d="m 21.259871,170.07876 0,-10.42491 14.173228,0 0,-23.69461 -14.173228,0 0,-24.89932 14.173228,0 0,-23.694601 -14.173228,0 0,-24.899325 14.173228,0 0,-23.694601 -14.173228,0 0,-10.424915"
     inkscape:connector-curvature="0" />
  <path
     style="fill:none;stroke:#000000;stroke-width:0.07086614;stroke-linecap:butt;stroke-linejoin:miter;stroke-miterlimit:4;stroke-opacity:1;stroke-dasharray:none"
     d="m 21.272174,609.37746 559.831926,0.0639"
     id="path3635"
     inkscape:connector-curvature="0" />
  <path
     style="fill:none;stroke:#000000;stroke-width:0.07086614;stroke-linecap:butt;stroke-linejoin:miter;stroke-miterlimit:4;stroke-opacity:1;stroke-dasharray:none"
     d="M 778.34598,243.76826 778.33018,31.169838"
     id="path3637"
     inkscape:connector-curvature="0" />
  <path
     style="fill:none;stroke:#000000;stroke-width:0.07086614;stroke-linecap:butt;stroke-linejoin:miter;stroke-miterlimit:4;stroke-opacity:1;stroke-dasharray:none"
     d="M 581.11592,28.328346 21.182884,28.306026"
     id="path3639"
     inkscape:connector-curvature="0" />
  <g
     id="g4638"
     transform="matrix(0,1,-1,0,995.69164,-760.15016)">
    <path
       d="m 1250.1287,218.1951 0,9.8225 14.1733,0 0,24.8993 -14.1733,0 0,23.6946 14.1733,0 0,24.8994 -14.1733,0 0,23.6946 14.1733,0 0,24.8993 -14.1733,0 0,9.8225"
       style="fill:none;stroke:#000000;stroke-width:0.07086614;stroke-miterlimit:4;stroke-dasharray:none"
       inkscape:label="part"
       id="path3563"
       inkscape:connector-curvature="0" />
    <path
       d="m 1250.1287,359.9273 -12.2972,0 0,14.1733 -27.374,0 0,-14.1733 -26.1693,0 0,14.1733 -27.374,0 0,-14.1733 -26.1693,0 0,14.1733 -27.374,0 0,-14.1733 -26.1693,0 0,14.1733 -27.374,0 0,-14.1733 -12.2973,0"
       style="fill:none;stroke:#000000;stroke-width:0.07086614;stroke-miterlimit:4;stroke-dasharray:none"
       inkscape:label="part"
       id="path3565"
       inkscape:connector-curvature="0" />
    <path
       d="m 1037.5303,359.9273 0,-9.8225 -14.1732,0 0,-24.8993 14.1732,0 0,-23.6946 -14.1732,0 0,-24.8994 14.1732,0 0,-23.6946 -14.1732,0 0,-24.8993 14.1732,0 0,-9.8225"
       style="fill:none;stroke:#000000;stroke-width:0.07086614;stroke-miterlimit:4;stroke-dasharray:none"
       inkscape:label="part"
       id="path3567"
       inkscape:connector-curvature="0" />
    <path
       inkscape:connector-curvature="0"
       id="path3633"
       d="m 1250.1288,218.3754 -212.5984,0.2232"
       style="fill:none;stroke:#000000;stroke-width:0.07086614;stroke-linecap:butt;stroke-linejoin:miter;stroke-miterlimit:4;stroke-opacity:1;stroke-dasharray:none" />
    <rect
       transform="matrix(0,1,-1,0,0,0)"
       y="-1203.0284"
       x="300.72858"
       height="44.988354"
       width="41.445045"
       id="rect4525"
       style="fill:none;stroke:#000000;stroke-width:0.07086614;stroke-miterlimit:4;stroke-opacity:1;stroke-dasharray:none" />
  </g>
  <g
     id="g4645"
     transform="matrix(0,1,-1,0,1610.9188,-653.29041)">
    <rect
       y="606.28119"
       x="667.27789"
       height="211.75648"
       width="531.65332"
       id="rect4477"
       style="fill:none;stroke:#000000;stroke-width:0.07086614;stroke-miterlimit:4;stroke-opacity:1;stroke-dasharray:none" />
    <rect
       y="676.23285"
       x="1021.6934"
       height="70.853859"
       width="145.26331"
       id="rect4479"
       style="fill:none;stroke:#000000;stroke-width:0.07086614;stroke-miterlimit:4;stroke-opacity:1;stroke-dasharray:none" />
    <path
       transform="matrix(0.36226802,0,0,0.36226802,867.59519,-102.28141)"
       d="m 227.85714,2248.1721 c 0,40.2379 -32.61925,72.8572 -72.85714,72.8572 -40.23789,0 -72.85714,-32.6193 -72.85714,-72.8572 0,-40.2379 32.61925,-72.8571 72.85714,-72.8571 40.23789,0 72.85714,32.6192 72.85714,72.8571 z"
       sodipodi:ry="72.85714"
       sodipodi:rx="72.85714"
       sodipodi:cy="2248.1721"
       sodipodi:cx="155"
       id="path4558"
       style="fill:none;stroke:#000000;stroke-width:0.19561797;stroke-miterlimit:4;stroke-opacity:1;stroke-dasharray:none"
       sodipodi:type="arc" />
  </g>
  <g
     id="g4622"
     transform="matrix(0,-1,1,0,399.61196,779.52755)">
    <g
       style="fill:none;stroke:#000000;stroke-width:0.07086614;stroke-miterlimit:4;stroke-opacity:1;stroke-dasharray:none"
       transform="translate(200.9973,-1614.7068)"
       id="g4566">
      <rect
         style="fill:none;stroke:#000000;stroke-width:0.07086614;stroke-linecap:butt;stroke-linejoin:miter;stroke-miterlimit:4;stroke-opacity:1;stroke-dasharray:none"
         id="rect3707"
         width="559.0863"
         height="240.18869"
         x="0.37809688"
         y="2239.748" />
      <rect
         y="2323.916"
         x="369.00967"
         height="70.853859"
         width="145.26331"
         id="rect4481"
         style="fill:none;stroke:#000000;stroke-width:0.07086614;stroke-miterlimit:4;stroke-opacity:1;stroke-dasharray:none" />
      <path
         transform="matrix(0.36226802,0,0,0.36226802,214.91145,1545.4016)"
         d="m 227.85714,2248.1721 c 0,40.2379 -32.61925,72.8572 -72.85714,72.8572 -40.23789,0 -72.85714,-32.6193 -72.85714,-72.8572 0,-40.2379 32.61925,-72.8571 72.85714,-72.8571 40.23789,0 72.85714,32.6192 72.85714,72.8571 z"
         sodipodi:ry="72.85714"
         sodipodi:rx="72.85714"
         sodipodi:cy="2248.1721"
         sodipodi:cx="155"
         id="path4560"
         style="fill:none;stroke:#000000;stroke-width:0.19561797;stroke-miterlimit:4;stroke-opacity:1;stroke-dasharray:none"
         sodipodi:type="arc" />
    </g>
    <text
       transform="matrix(0,1,-1,0,0,0)"
       sodipodi:linespacing="125%"
       id="text4571"
       y="-318.89764"
       x="698.81323"
       style="font-size:40px;font-style:normal;font-variant:normal;font-weight:normal;font-stretch:normal;line-height:125%;letter-spacing:0px;word-spacing:0px;fill:#000000;fill-opacity:1;stroke:none;font-family:Ubuntu Mono;-inkscape-font-specification:Ubuntu Mono"
       xml:space="preserve"><tspan
         y="-318.89764"
         x="698.81323"
         id="tspan4573"
         sodipodi:role="line">Blimb</tspan></text>
    <text
       transform="matrix(0,1,-1,0,0,0)"
       sodipodi:linespacing="125%"
       id="text4575"
       y="-283.46454"
       x="708.66138"
       style="font-size:40px;font-style:normal;font-variant:normal;font-weight:normal;font-stretch:normal;line-height:125%;letter-spacing:0px;word-spacing:0px;fill:#000000;fill-opacity:1;stroke:none;font-family:Ubuntu Mono;-inkscape-font-specification:Ubuntu Mono"
       xml:space="preserve"><tspan
         y="-283.46454"
         x="708.66138"
         id="tspan4577"
         sodipodi:role="line">v0.2</tspan></text>
    <text
       transform="matrix(0,1,-1,0,0,0)"
       sodipodi:linespacing="125%"
       id="text4579"
       y="-241.32172"
       x="627.94714"
       style="font-size:28px;font-style:normal;font-variant:normal;font-weight:normal;font-stretch:normal;line-height:125%;letter-spacing:0px;word-spacing:0px;fill:#000000;fill-opacity:1;stroke:none;font-family:Ubuntu Mono;-inkscape-font-specification:Ubuntu Mono"
       xml:space="preserve"><tspan
         y="-241.32172"
         x="627.94714"
         id="tspan4581"
         sodipodi:role="line">Kärki,</tspan></text>
    <text
       transform="matrix(0,1,-1,0,0,0)"
       sodipodi:linespacing="125%"
       id="text4583"
       y="-213.1142"
       x="627.94714"
       style="font-size:28px;font-style:normal;font-variant:normal;font-weight:normal;font-stretch:normal;line-height:125%;letter-spacing:0px;word-spacing:0px;fill:#000000;fill-opacity:1;stroke:none;font-family:Ubuntu Mono;-inkscape-font-specification:Ubuntu Mono"
       xml:space="preserve"><tspan
         y="-213.1142"
         x="627.94714"
         id="tspan4585"
         sodipodi:role="line">Mustaniemi</tspan></text>
    <text
       sodipodi:linespacing="125%"
       id="text4601"
       y="850.39368"
       x="602.36218"
       style="font-size:28px;font-style:normal;font-variant:normal;font-weight:normal;font-stretch:normal;line-height:125%;letter-spacing:0px;word-spacing:0px;fill:#000000;fill-opacity:1;stroke:none;font-family:Ubuntu Mono;-inkscape-font-specification:Ubuntu Mono"
       xml:space="preserve"><tspan
         y="850.39368"
         x="602.36218"
         id="tspan4603"
         sodipodi:role="line">Oulu 2016</tspan></text>
  </g>
</svg>
