<?xml version="1.0" encoding="UTF-8" standalone="no"?>
<!-- Created with Inkscape (http://www.inkscape.org/) -->

<svg
   xmlns:dc="http://purl.org/dc/elements/1.1/"
   xmlns:cc="http://creativecommons.org/ns#"
   xmlns:rdf="http://www.w3.org/1999/02/22-rdf-syntax-ns#"
   xmlns:svg="http://www.w3.org/2000/svg"
   xmlns="http://www.w3.org/2000/svg"
   xmlns:xlink="http://www.w3.org/1999/xlink"
   xmlns:sodipodi="http://sodipodi.sourceforge.net/DTD/sodipodi-0.dtd"
   xmlns:inkscape="http://www.inkscape.org/namespaces/inkscape"
   width="1052.3622"
   height="744.09448"
   id="svg2"
   version="1.1"
   inkscape:version="0.48.4 r9939"
   sodipodi:docname="lids.svg">
  <defs
     id="defs4" />
  <sodipodi:namedview
     id="base"
     pagecolor="#ffffff"
     bordercolor="#666666"
     borderopacity="1.0"
     inkscape:pageopacity="0.0"
     inkscape:pageshadow="2"
     inkscape:zoom="2.8"
     inkscape:cx="301.45173"
     inkscape:cy="527.78194"
     inkscape:document-units="mm"
     inkscape:current-layer="layer1"
     showgrid="true"
     units="mm"
     objecttolerance="6"
     gridtolerance="10"
     guidetolerance="5"
     inkscape:window-width="1600"
     inkscape:window-height="851"
     inkscape:window-x="0"
     inkscape:window-y="23"
     inkscape:window-maximized="1">
    <inkscape:grid
       type="xygrid"
       id="grid2985"
       empspacing="5"
       visible="true"
       enabled="true"
       snapvisiblegridlinesonly="true"
       units="mm"
       spacingx="10mm"
       spacingy="10mm" />
  </sodipodi:namedview>
  <metadata
     id="metadata7">
    <rdf:RDF>
      <cc:Work
         rdf:about="">
        <dc:format>image/svg+xml</dc:format>
        <dc:type
           rdf:resource="http://purl.org/dc/dcmitype/StillImage" />
        <dc:title />
      </cc:Work>
    </rdf:RDF>
  </metadata>
  <g
     inkscape:label="Layer 1"
     inkscape:groupmode="layer"
     id="layer1"
     transform="translate(0,-308.26769)">
    <g
       id="Sketch"
       transform="matrix(3.5433071,0,0,-3.5433071,193.9644,496.81701)"
       style="stroke-width:0.02;stroke-miterlimit:4;stroke-dasharray:none;stroke:#000000;stroke-opacity:1;fill:none">
      <circle
         sodipodi:ry="52.5"
         sodipodi:rx="52.5"
         sodipodi:cy="0"
         sodipodi:cx="0"
         cx="0"
         cy="0"
         r="52.5"
         style="fill:none;stroke:#000000;stroke-width:0.02;stroke-miterlimit:4;stroke-opacity:1;stroke-dasharray:none"
         id="circle3049"
         d="M 52.5,0 C 52.5,28.994949 28.994949,52.5 0,52.5 -28.994949,52.5 -52.5,28.994949 -52.5,0 c 0,-28.994949 23.505051,-52.5 52.5,-52.5 28.994949,0 52.5,23.505051 52.5,52.5 z" />
      <circle
         sodipodi:ry="0.99021298"
         sodipodi:rx="0.99021298"
         sodipodi:cy="0"
         sodipodi:cx="50.5"
         cx="50.5"
         cy="0"
         r="0.99021298"
         style="fill:none;stroke:#000000;stroke-width:0.02;stroke-miterlimit:4;stroke-dasharray:none;stroke-opacity:1"
         id="circle3051"
         d="m 51.490213,0 c 0,0.54687953 -0.443333,0.99021298 -0.990213,0.99021298 -0.54688,0 -0.990213,-0.44333345 -0.990213,-0.99021298 0,-0.54687953 0.443333,-0.99021298 0.990213,-0.99021298 0.54688,0 0.990213,0.44333345 0.990213,0.99021298 z" />
      <circle
         sodipodi:ry="1"
         sodipodi:rx="1"
         sodipodi:cy="50.5"
         sodipodi:cx="0"
         cx="0"
         cy="50.5"
         r="1"
         style="fill:none;stroke:#000000;stroke-width:0.02;stroke-miterlimit:4;stroke-dasharray:none;stroke-opacity:1"
         id="circle3053"
         d="m 1,50.5 c 0,0.552285 -0.44771525,1 -1,1 -0.55228475,0 -1,-0.447715 -1,-1 0,-0.552285 0.44771525,-1 1,-1 0.55228475,0 1,0.447715 1,1 z" />
      <circle
         sodipodi:ry="1"
         sodipodi:rx="1"
         sodipodi:cy="-50.5"
         sodipodi:cx="0"
         cx="0"
         cy="-50.5"
         r="1"
         style="fill:none;stroke:#000000;stroke-width:0.02;stroke-miterlimit:4;stroke-dasharray:none;stroke-opacity:1"
         id="circle3055"
         d="m 1,-50.5 c 0,0.552285 -0.44771525,1 -1,1 -0.55228475,0 -1,-0.447715 -1,-1 0,-0.552285 0.44771525,-1 1,-1 0.55228475,0 1,0.447715 1,1 z" />
      <circle
         sodipodi:ry="1"
         sodipodi:rx="1"
         sodipodi:cy="0"
         sodipodi:cx="-50.5"
         cx="-50.5"
         cy="0"
         r="1"
         style="fill:none;stroke:#000000;stroke-width:0.02;stroke-miterlimit:4;stroke-dasharray:none;stroke-opacity:1"
         id="circle3057"
         d="m -49.5,0 c 0,0.55228475 -0.447715,1 -1,1 -0.552285,0 -1,-0.44771525 -1,-1 0,-0.55228475 0.447715,-1 1,-1 0.552285,0 1,0.44771525 1,1 z" />
      <title
         id="title3059">Sketch</title>
    </g>
    <text
       xml:space="preserve"
       style="font-size:40px;font-style:normal;font-variant:normal;font-weight:normal;font-stretch:normal;line-height:125%;letter-spacing:0px;word-spacing:0px;fill:#000000;fill-opacity:1;stroke:none;font-family:Ubuntu;-inkscape-font-specification:Ubuntu"
       x="100.2383"
       y="485.43304"
       id="text3120"
       sodipodi:linespacing="125%"><tspan
         sodipodi:role="line"
         id="tspan3122"
         x="100.2383"
         y="485.43304"
         style="font-size:28px;font-style:normal;font-variant:normal;font-weight:normal;font-stretch:normal;font-family:Monospace;-inkscape-font-specification:Monospace">Kärki &amp;</tspan><tspan
         sodipodi:role="line"
         x="100.2383"
         y="520.43304"
         id="tspan3124"
         style="font-size:28px;font-style:normal;font-variant:normal;font-weight:normal;font-stretch:normal;font-family:Monospace;-inkscape-font-specification:Monospace">Mustaniemi</tspan><tspan
         sodipodi:role="line"
         x="100.2383"
         y="555.43304"
         style="font-size:28px;font-style:normal;font-variant:normal;font-weight:normal;font-stretch:normal;font-family:Monospace;-inkscape-font-specification:Monospace"
         id="tspan3150" /><tspan
         sodipodi:role="line"
         x="100.2383"
         y="590.43304"
         id="tspan3126"
         style="font-size:28px;font-style:normal;font-variant:normal;font-weight:normal;font-stretch:normal;font-family:Monospace;-inkscape-font-specification:Monospace">FAB LAB OULU</tspan><tspan
         sodipodi:role="line"
         x="100.2383"
         y="625.43304"
         id="tspan3132"
         style="font-size:28px;font-style:normal;font-variant:normal;font-weight:normal;font-stretch:normal;font-family:Monospace;-inkscape-font-specification:Monospace">2016 </tspan></text>
    <text
       xml:space="preserve"
       style="font-size:40px;font-style:normal;font-variant:normal;font-weight:normal;font-stretch:normal;line-height:125%;letter-spacing:0px;word-spacing:0px;fill:#000000;fill-opacity:1;stroke:none;font-family:Ubuntu;-inkscape-font-specification:Ubuntu;stroke-width:0.07086614;stroke-miterlimit:4;stroke-dasharray:none"
       x="239.40614"
       y="474.38376"
       id="text3128"
       sodipodi:linespacing="125%"
       transform="translate(0,308.26769)"><tspan
         sodipodi:role="line"
         id="tspan3130"
         x="239.40614"
         y="474.38376" /></text>
    <flowRoot
       xml:space="preserve"
       id="flowRoot3134"
       style="fill:black;stroke:none;stroke-opacity:1;stroke-width:0.07086614;stroke-linejoin:miter;stroke-linecap:butt;fill-opacity:1;font-family:Ubuntu;font-style:normal;font-weight:normal;font-size:40px;line-height:125%;letter-spacing:0px;word-spacing:0px;-inkscape-font-specification:Ubuntu;font-stretch:normal;font-variant:normal;stroke-miterlimit:4;stroke-dasharray:none"><flowRegion
         id="flowRegion3136"><rect
           id="rect3138"
           width="144.95689"
           height="47.477169"
           x="125.76399"
           y="553.17566"
           style="stroke-width:0.07086614;stroke-miterlimit:4;stroke-dasharray:none" /></flowRegion><flowPara
         id="flowPara3140" /></flowRoot>    <text
       xml:space="preserve"
       style="font-size:40px;font-style:normal;font-variant:normal;font-weight:normal;font-stretch:normal;line-height:125%;letter-spacing:0px;word-spacing:0px;fill:#000000;fill-opacity:1;stroke:none;font-family:Ubuntu;-inkscape-font-specification:Ubuntu"
       x="74.246208"
       y="435.81879"
       id="text3152"
       sodipodi:linespacing="125%"><tspan
         sodipodi:role="line"
         id="tspan3154"
         x="74.246208"
         y="435.81879"
         style="font-style:normal;font-variant:normal;font-weight:normal;font-stretch:normal;font-family:Monospace;-inkscape-font-specification:Monospace">Blimb v1.0</tspan></text>
    <g
       id="Sketch-1"
       transform="matrix(0,-3.5433071,-3.5433071,0,516.55935,417.50179)"
       style="fill:none;stroke:#000000;stroke-width:0.02;stroke-miterlimit:4;stroke-opacity:1;stroke-dasharray:none">
      <circle
         sodipodi:ry="27.5"
         sodipodi:rx="27.5"
         sodipodi:cy="0"
         sodipodi:cx="0"
         cx="0"
         cy="0"
         r="27.5"
         style="fill:none;stroke:#000000;stroke-width:0.02;stroke-miterlimit:4;stroke-opacity:1;stroke-dasharray:none"
         id="circle3215"
         d="M 27.5,0 C 27.5,15.187831 15.187831,27.5 0,27.5 -15.187831,27.5 -27.5,15.187831 -27.5,0 c 0,-15.187831 12.312169,-27.5 27.5,-27.5 15.187831,0 27.5,12.312169 27.5,27.5 z" />
      <path
         inkscape:connector-curvature="0"
         id="Sketch_w0001"
         d="m -10.5,-20.5 0,41 21,0 0,-41 -7.5,0 0,-3.5 -6,0 0,3.5 -7.5,0"
         style="fill:none;stroke:#000000;stroke-width:0.02;stroke-miterlimit:4;stroke-opacity:1;stroke-dasharray:none" />
      <circle
         sodipodi:ry="6.5"
         sodipodi:rx="6.5"
         sodipodi:cy="0"
         sodipodi:cx="18.526814"
         cx="18.526814"
         cy="0"
         r="6.5"
         style="fill:none;stroke:#000000;stroke-width:0.02;stroke-miterlimit:4;stroke-opacity:1;stroke-dasharray:none"
         id="circle3218"
         d="m 25.026814,0 c 0,3.5898509 -2.91015,6.5 -6.5,6.5 -3.589851,0 -6.5,-2.9101491 -6.5,-6.5 0,-3.5898509 2.910149,-6.5 6.5,-6.5 3.58985,0 6.5,2.9101491 6.5,6.5 z" />
      <title
         id="title3220">Sketch</title>
    </g>
    <text
       xml:space="preserve"
       style="font-size:40px;font-style:normal;font-variant:normal;font-weight:normal;font-stretch:normal;line-height:125%;letter-spacing:0px;word-spacing:0px;fill:#000000;fill-opacity:1;stroke:none;font-family:Ubuntu;-inkscape-font-specification:Ubuntu"
       id="text3303"
       sodipodi:linespacing="125%"
       transform="matrix(0.65472986,-0.75586296,0.75586296,0.65472986,320.80271,-131.90063)"><textPath
         xlink:href="#path4081"
         id="textPath4091"><tspan
   style="font-size:22px;font-style:normal;font-variant:normal;font-weight:normal;font-stretch:normal;stroke:none;font-family:Monospace;-inkscape-font-specification:Monospace"
   id="tspan3305">Blimb v1.0</tspan></textPath></text>
    <path
       sodipodi:type="arc"
       style="fill:none;stroke:none"
       id="path4081"
       sodipodi:cx="127.90071"
       sodipodi:cy="345.20065"
       sodipodi:rx="44.563129"
       sodipodi:ry="44.563129"
       d="m 172.46384,345.20065 c 0,24.61154 -19.95159,44.56313 -44.56313,44.56313 -24.61154,0 -44.563128,-19.95159 -44.563128,-44.56313 0,0 0,0 0,0 l 44.563128,0 z"
       transform="matrix(-2.1835198,0,0,2.1835198,-1.3683391,-249.9242)"
       sodipodi:start="0"
       sodipodi:end="3.1415927" />
  </g>
</svg>
